<?xml version="1.0" encoding="UTF-8" standalone="no"?><!-- Generator: Gravit.io --><svg xmlns="http://www.w3.org/2000/svg" xmlns:xlink="http://www.w3.org/1999/xlink" style="isolation:isolate" viewBox="0 0 1024 1024" width="1024pt" height="1024pt"><defs><clipPath id="_clipPath_B6syFoNcUkRgL1wsw3eJsScGtChGPsAw"><rect width="1024" height="1024"/></clipPath></defs><g clip-path="url(#_clipPath_B6syFoNcUkRgL1wsw3eJsScGtChGPsAw)"><rect width="1024" height="1024" style="fill:rgb(24,24,24)"/><g clip-path="url(#_clipPath_I2KECgkk74Wre9hbNvt44pwE7cqebop0)"><text transform="matrix(1,0,0,1,189.916,560.984)" style="font-family:'Satisfy';font-weight:400;font-size:220px;font-style:normal;fill:#ffffff;stroke:none;">Notable</text></g><defs><clipPath id="_clipPath_I2KECgkk74Wre9hbNvt44pwE7cqebop0"><rect x="0" y="0" width="592" height="313.242" transform="matrix(1,0,0,1,181,355.379)"/></clipPath></defs><g><path d=" M 809.052 485.572 L 842.338 375.218 C 844.796 367.058 840.199 358.499 832.039 356.041 C 823.88 353.583 815.32 358.18 812.862 366.339 L 779.66 476.719 L 809.052 485.572 Z " fill-rule="evenodd" fill="rgb(248,180,37)"/><path d=" M 779.66 476.719 L 783.71 516.491 L 809.052 485.572 L 779.66 476.719 Z " fill-rule="evenodd" fill="rgb(248,180,37)"/><mask id="_mask_lKiK0jf0RhuiczH4YAzRHgq6L62rkLLx" x="-200%" y="-200%" width="400%" height="400%"><rect x="-200%" y="-200%" width="400%" height="400%" style="fill:white;"/><path d=" M 779.66 476.719 L 801.161 483.195 L 809.052 485.572" fill="black" stroke="none"/></mask><path d=" M 779.66 476.719 L 801.161 483.195 L 809.052 485.572" fill="none"/><path d=" M 779.66 476.719 L 801.161 483.195 L 809.052 485.572" fill="none" mask="url(#_mask_lKiK0jf0RhuiczH4YAzRHgq6L62rkLLx)" vector-effect="non-scaling-stroke" stroke-width="4" stroke="rgb(24,24,24)" stroke-linejoin="round" stroke-linecap="butt" stroke-miterlimit="10"/></g></g></svg>